<svg width="359" height="379" viewBox="0 0 359 379" fill="none" xmlns="http://www.w3.org/2000/svg">
<path d="M359 180C359 230.315 338.466 275.669 305.539 308.268C273.322 340.512 228.712 360 179.5 360C130.642 360 86.0325 340.157 53.4605 308.268C20.5345 275.669 0 230.315 0 180C0 80.4331 80.3679 0 179.5 0C278.632 0 359 80.7874 359 180Z" fill="url(#paint0_linear_49_3014)"/>
<rect x="61.7861" y="80.4717" width="239.317" height="294.018" rx="28.724" stroke="url(#paint1_linear_49_3014)" stroke-width="8.74208"/>
<path d="M126.255 82.4253H236.634C236.634 91.0569 229.637 98.0541 221.005 98.0541H141.884C133.253 98.0541 126.255 91.0569 126.255 82.4253Z" fill="#ACB1A2"/>
<path d="M286.5 304.5C286.5 302.881 285.917 301.318 284.842 299.829L284.436 300.122C282.958 298.077 280.463 296.115 277.079 294.268L277.319 293.829C274.848 292.48 271.918 291.196 268.581 289.987L268.411 290.457C265.671 289.465 262.649 288.521 259.373 287.632L259.504 287.15C256.613 286.366 253.526 285.625 250.262 284.931L250.158 285.42C247.199 284.792 244.093 284.202 240.854 283.654L240.937 283.161C237.919 282.651 234.786 282.177 231.548 281.743L231.482 282.239C228.435 281.83 225.295 281.456 222.072 281.119L222.124 280.622C219.048 280.3 215.896 280.012 212.677 279.76L212.638 280.259C209.547 280.016 206.394 279.807 203.185 279.633L203.212 279.134C200.102 278.965 196.941 278.828 193.734 278.726L193.718 279.225C190.6 279.126 187.439 279.058 184.241 279.025L184.246 278.525C182.673 278.508 181.09 278.5 179.5 278.5C177.91 278.5 176.327 278.508 174.754 278.525L174.759 279.025C171.561 279.058 168.4 279.126 165.282 279.225L165.266 278.726C162.059 278.828 158.898 278.965 155.788 279.134L155.815 279.633C152.606 279.807 149.453 280.016 146.362 280.259L146.323 279.76C143.104 280.012 139.952 280.3 136.876 280.622L136.928 281.119C133.705 281.456 130.565 281.83 127.518 282.239L127.452 281.743C124.214 282.177 121.081 282.651 118.063 283.161L118.146 283.654C114.907 284.202 111.801 284.792 108.842 285.42L108.738 284.931C105.474 285.625 102.387 286.366 99.4961 287.15L99.627 287.632C96.3506 288.521 93.3289 289.465 90.5893 290.457L90.419 289.987C87.0816 291.196 84.1515 292.48 81.681 293.829L81.9206 294.268C78.5371 296.115 76.0416 298.077 74.5637 300.122L74.1584 299.829C73.0827 301.318 72.5 302.881 72.5 304.5C72.5 306.119 73.0827 307.682 74.1584 309.171L74.5637 308.878C76.0416 310.923 78.5371 312.885 81.9206 314.732L81.681 315.171C84.1515 316.52 87.0816 317.804 90.419 319.013L90.5893 318.543C93.3289 319.535 96.3506 320.479 99.627 321.368L99.4961 321.85C102.387 322.634 105.474 323.375 108.738 324.069L108.842 323.58C111.801 324.208 114.907 324.798 118.146 325.346L118.063 325.839C121.081 326.349 124.214 326.823 127.452 327.257L127.518 326.761C130.565 327.17 133.705 327.544 136.928 327.881L136.876 328.378C139.952 328.7 143.104 328.988 146.323 329.24L146.362 328.741C149.453 328.984 152.606 329.193 155.815 329.367L155.788 329.866C158.898 330.035 162.059 330.172 165.266 330.274L165.282 329.775C168.4 329.874 171.561 329.942 174.759 329.975L174.754 330.475C176.327 330.492 177.91 330.5 179.5 330.5C181.09 330.5 182.673 330.492 184.246 330.475L184.241 329.975C187.439 329.942 190.6 329.874 193.718 329.775L193.734 330.274C196.941 330.172 200.102 330.035 203.212 329.866L203.185 329.367C206.394 329.193 209.547 328.984 212.638 328.741L212.677 329.24C215.896 328.988 219.048 328.7 222.124 328.378L222.072 327.881C225.295 327.544 228.435 327.17 231.482 326.761L231.548 327.257C234.786 326.823 237.919 326.349 240.937 325.839L240.854 325.346C244.093 324.798 247.199 324.208 250.158 323.58L250.262 324.069C253.526 323.375 256.613 322.634 259.504 321.85L259.373 321.368C262.649 320.479 265.671 319.535 268.411 318.543L268.581 319.013C271.918 317.804 274.849 316.52 277.319 315.171L277.079 314.732C280.463 312.885 282.958 310.923 284.436 308.878L284.842 309.171C285.917 307.682 286.5 306.119 286.5 304.5Z" stroke="#39352F" stroke-opacity="0.84" stroke-dasharray="9 9"/>
<defs>
<linearGradient id="paint0_linear_49_3014" x1="179.5" y1="0" x2="179.5" y2="360" gradientUnits="userSpaceOnUse">
<stop stop-color="#E2E4DD"/>
<stop offset="0.991855" stop-color="#E3E5DD" stop-opacity="0"/>
</linearGradient>
<linearGradient id="paint1_linear_49_3014" x1="181.445" y1="80.4717" x2="180.888" y2="351.128" gradientUnits="userSpaceOnUse">
<stop stop-color="#ACB1A2"/>
<stop offset="1" stop-color="#ACB1A2" stop-opacity="0"/>
</linearGradient>
</defs>
</svg>
