<svg width="17" height="18" viewBox="0 0 17 18" fill="none" xmlns="http://www.w3.org/2000/svg">
<path d="M16.5665 4.19786L8.91656 0.109546C8.78735 0.0377811 8.64077 0 8.49157 0C8.34236 0 8.19579 0.0377811 8.06657 0.109546L0.41666 4.19786C0.287266 4.27162 0.180535 4.37709 0.107363 4.5035C0.0341917 4.62992 -0.00279945 4.77274 0.000165168 4.9174V13.094C0.0012683 13.2397 0.0428242 13.3825 0.120533 13.5076C0.198242 13.6326 0.309282 13.7355 0.44216 13.8054L8.09207 17.8937C8.2166 17.9616 8.35693 17.9982 8.50007 18C8.64584 17.9978 8.78884 17.9613 8.91656 17.8937L16.5665 13.8054C16.6978 13.7344 16.8071 13.6311 16.8833 13.5061C16.9594 13.3811 16.9997 13.2389 17 13.094V4.9174C17.0012 4.77113 16.9617 4.62721 16.8854 4.50065C16.8092 4.37409 16.699 4.26953 16.5665 4.19786ZM7.65008 15.7923L1.70015 12.6116V6.29925L7.65008 9.47996V15.7923ZM8.50007 8.0654L2.60114 4.9174L8.50007 1.76122L14.399 4.9174L8.50007 8.0654ZM15.3 12.6116L9.35006 15.7923V9.47996L15.3 6.29925V12.6116Z" fill="#999C92"/>
</svg>
