<svg width="15" height="15" viewBox="0 0 15 15" fill="none" xmlns="http://www.w3.org/2000/svg">
<path d="M1.25 6.25C1.25 5.91848 1.3817 5.60054 1.61612 5.36612C1.85054 5.1317 2.16848 5 2.5 5H12.5C12.8315 5 13.1495 5.1317 13.3839 5.36612C13.6183 5.60054 13.75 5.91848 13.75 6.25V10.625C13.75 10.9565 13.6183 11.2745 13.3839 11.5089C13.1495 11.7433 12.8315 11.875 12.5 11.875H10.0825C9.86664 11.875 9.65446 11.8191 9.46662 11.7128C9.27878 11.6064 9.12168 11.4532 9.01062 11.2681L8.03563 9.64312C7.98006 9.55072 7.90153 9.47426 7.80768 9.42118C7.71382 9.36809 7.60783 9.3402 7.5 9.3402C7.39217 9.3402 7.28618 9.36809 7.19232 9.42118C7.09847 9.47426 7.01994 9.55072 6.96437 9.64312L5.98938 11.2681C5.87832 11.4532 5.72122 11.6064 5.53338 11.7128C5.34554 11.8191 5.13336 11.875 4.9175 11.875H2.5C2.16848 11.875 1.85054 11.7433 1.61612 11.5089C1.3817 11.2745 1.25 10.9565 1.25 10.625V6.25Z" stroke="#C1AD8B" stroke-width="1.25" stroke-linecap="round" stroke-linejoin="round"/>
<path d="M2.38312 4.23813C2.61137 3.89581 2.92057 3.61511 3.28329 3.42094C3.64602 3.22676 4.05107 3.12511 4.4625 3.125H10.5362C10.9478 3.12501 11.353 3.22661 11.7158 3.42079C12.0787 3.61497 12.388 3.89572 12.6163 4.23813L13.125 5H1.875L2.38312 4.23813V4.23813Z" stroke="#C1AD8B" stroke-width="1.25" stroke-linecap="round" stroke-linejoin="round"/>
</svg>
